<svg width="24" height="24" viewBox="0 0 24 24" fill="none" xmlns="http://www.w3.org/2000/svg">
<g clip-path="url(#clip0_201_148)">
<rect width="24" height="24" fill="white"/>
<path d="M16.4055 23.8007C15.9181 23.6788 15.3088 23.8007 14.9432 23.5569C13.3591 22.4602 12.0187 22.704 10.4346 23.6788C9.33786 24.2881 7.87558 24.0444 7.02259 22.8258C5.80403 21.1198 4.46361 19.4138 3.48876 17.4641C2.14834 14.4177 2.51391 11.6151 4.09804 8.81237C5.68217 6.13153 8.36301 5.27856 11.0438 6.61897C12.8717 7.59382 14.334 6.86266 15.9181 6.13152C17.8678 5.15667 19.9393 5.64412 21.1579 7.22825C21.5235 7.83754 21.7672 8.20306 21.036 8.9342C18.2334 11.3713 18.1115 13.9304 20.5486 16.6112C22.1328 18.439 22.1328 18.439 20.6705 20.3887C19.5738 21.9728 18.8426 24.0444 16.4055 23.8007Z" fill="black"/>
<path d="M17.3801 0.0389955C17.1364 2.59798 16.0396 4.42582 13.7244 5.52253C12.384 6.13181 11.6528 5.52251 11.8965 4.06024C12.1402 2.71982 12.8714 1.74497 13.8462 1.01383C15.0648 0.0389806 15.3085 -0.0828607 17.3801 0.0389955Z" fill="black"/>
</g>
<defs>
<clipPath id="clip0_201_148">
<rect width="24" height="24" fill="white"/>
</clipPath>
</defs>
</svg>
